# xmcd CD database file
#
# Track frame offsets:
#	150
#	14148
#	28243
#	44126
#	57876
#	72356
#	88777
#	103876
#	120235
#	136366
#	152180
#	169663
#
# Disc length: 2496 seconds
#
# Revision: 2
# Processed by: cddbd v1.5.2PL0 Copyright (c) Steve Scherf et al.
# Submitted via: CDex 1.50
#
DISCID=ad09be0c
DTITLE=Franziska - Herrlich Unperfekt [Deluxe Edition]
DYEAR=2018
DGENRE=Saksa Iskelmä
TTITLE0=Herrlich Unperfekt
TTITLE1=Sie Wissen Nicht
TTITLE2=Wer Bin Ich?
TTITLE3=Was Ich Dir Sagen Will
TTITLE4=Moment
TTITLE5=So´n Augenblick
TTITLE6=Alles Nur Ein Traum
TTITLE7=Wir Zwei
TTITLE8=Du Machst Es Mir Nicht Leicht
TTITLE9=Sommerregen
TTITLE10=Wie Ein Magnet
TTITLE11=Helden
EXTD=YEAR: 2018
EXTT0=
EXTT1=
EXTT2=
EXTT3=
EXTT4=
EXTT5=
EXTT6=
EXTT7=
EXTT8=
EXTT9=
EXTT10=
EXTT11=
PLAYORDER=
